<?xml version="1.0" encoding="UTF-8"?>
<!DOCTYPE svg PUBLIC "-//W3C//DTD SVG 1.1//EN" "http://www.w3.org/Graphics/SVG/1.1/DTD/svg11.dtd">
<svg xmlns="http://www.w3.org/2000/svg" version="1.1" width="6578px" height="3131px" style="shape-rendering:geometricPrecision; text-rendering:geometricPrecision; image-rendering:optimizeQuality; fill-rule:evenodd; clip-rule:evenodd" xmlns:xlink="http://www.w3.org/1999/xlink">
<g><path style="opacity:1" fill="#fefefe" d="M 3455.5,-0.5 C 3465.83,-0.5 3476.17,-0.5 3486.5,-0.5C 3515.07,1.1156 3543.4,5.28226 3571.5,12C 3686.32,130.985 3801.32,249.819 3916.5,368.5C 3971.49,306.007 4026.32,243.34 4081,180.5C 4097.2,165.296 4113.7,150.463 4130.5,136C 4140.4,128.886 4151.4,126.22 4163.5,128C 4184.21,131.905 4204.55,137.238 4224.5,144C 4497.36,365.364 4770.02,586.864 5042.5,808.5C 5043.58,810.587 5045.25,811.92 5047.5,812.5C 5048.58,814.587 5050.25,815.92 5052.5,816.5C 5053.58,818.587 5055.25,819.92 5057.5,820.5C 5078.48,836.818 5099.15,853.484 5119.5,870.5C 5118.67,871.329 5119,872.162 5120.5,873C 5168.89,911.517 5217.23,950.017 5265.5,988.5C 5472.15,1156.14 5678.81,1323.81 5885.5,1491.5C 5839.86,1550.31 5794.02,1608.98 5748,1667.5C 5669.67,1602.5 5591.33,1537.5 5513,1472.5C 5535.3,1914.48 5557.8,2356.48 5580.5,2798.5C 5527.52,2802.04 5474.52,2805.37 5421.5,2808.5C 5392.43,2313.83 5363.26,1819.17 5334,1324.5C 5258.02,1262.35 5182.52,1199.68 5107.5,1136.5C 5096.28,1125.88 5084.61,1115.71 5072.5,1106C 5032.14,1072.83 4991.8,1039.66 4951.5,1006.5C 4907.04,969.878 4862.71,933.045 4818.5,896C 4818.83,895.667 4819.17,895.333 4819.5,895C 4818.18,894.472 4817.52,894.972 4817.5,896.5C 4597.38,714.922 4377.38,533.088 4157.5,351C 4156.36,350.251 4155.36,350.417 4154.5,351.5C 4124.03,391.809 4093.36,431.976 4062.5,472C 4113.55,525.263 4164.72,578.429 4216,631.5C 4217.6,633.369 4218.6,635.369 4219,637.5C 4172.35,684.986 4125.51,732.319 4078.5,779.5C 4024.52,732.686 3970.69,685.686 3917,638.5C 3763.3,799.197 3609.97,960.197 3457,1121.5C 3468.59,1466.18 3480.75,1810.84 3493.5,2155.5C 3428.69,2198.41 3364.02,2241.58 3299.5,2285C 3297.59,2286.12 3295.59,2286.96 3293.5,2287.5C 3295.38,2286.05 3296.38,2284.05 3296.5,2281.5C 3261.71,1798.16 3226.88,1314.83 3192,831.5C 3105.3,735.798 3018.96,639.798 2933,543.5C 2771.17,684 2609.33,824.5 2447.5,965C 2445.21,965.418 2443.21,964.751 2441.5,963C 2404.45,934.948 2367.12,907.281 2329.5,880C 2485.01,738.656 2640.34,597.156 2795.5,455.5C 2734.04,401.214 2672.71,346.714 2611.5,292C 2574.11,277.8 2536.78,278.134 2499.5,293C 2467.68,306.241 2437.68,322.574 2409.5,342C 1893,778.5 1376.5,1215 860,1651.5C 872.693,2058.5 885.527,2465.5 898.5,2872.5C 855.904,2866.84 813.238,2861.34 770.5,2856C 769.473,2855.49 768.473,2854.99 767.5,2854.5C 745.246,2484.59 723.579,2114.59 702.5,1744.5C 652.941,1771.62 603.608,1799.28 554.5,1827.5C 516.893,1802.56 479.56,1777.22 442.5,1751.5C 442.709,1750.91 443.043,1750.41 443.5,1750C 1120.32,1200.43 1797.32,651.094 2474.5,102C 2525.28,71.2413 2580.28,59.2413 2639.5,66C 2666.68,68.7874 2693.68,72.7874 2720.5,78C 2722.17,79 2723.83,80 2725.5,81C 2810.08,158.254 2895.25,234.754 2981,310.5C 2999.12,295.386 3016.95,279.886 3034.5,264C 3079.56,219.604 3125.23,175.937 3171.5,133C 3207.33,100.757 3245.99,72.424 3287.5,48C 3339.86,18.7488 3395.86,2.58216 3455.5,-0.5 Z M 3423.5,183.5 C 3523.48,284.814 3623.15,386.481 3722.5,488.5C 3648.85,571.316 3575.02,653.982 3501,736.5C 3391.53,634.7 3282.37,532.533 3173.5,430C 3257.06,347.939 3340.39,265.772 3423.5,183.5 Z M 4817.5,896.5 C 4861.58,934.248 4906.24,971.248 4951.5,1007.5C 4716.27,1203.22 4480.27,1398.06 4243.5,1592C 4086.79,1718.72 3927.79,1842.39 3766.5,1963C 3676.63,2028.85 3585.8,2093.35 3494,2156.5C 3493.6,2156.27 3493.43,2155.94 3493.5,2155.5C 3480.75,1810.84 3468.59,1466.18 3457,1121.5C 3609.97,960.197 3763.3,799.197 3917,638.5C 3970.69,685.686 4024.52,732.686 4078.5,779.5C 4125.51,732.319 4172.35,684.986 4219,637.5C 4218.6,635.369 4217.6,633.369 4216,631.5C 4164.72,578.429 4113.55,525.263 4062.5,472C 4093.36,431.976 4124.03,391.809 4154.5,351.5C 4155.36,350.417 4156.36,350.251 4157.5,351C 4377.38,533.088 4597.38,714.922 4817.5,896.5 Z"/></g>
<g><path style="opacity:1" fill="#fee901" d="M 5265.5,988.5 C 5217.23,950.017 5168.89,911.517 5120.5,873C 5119,872.162 5118.67,871.329 5119.5,870.5C 5230.89,781.294 5342.89,692.794 5455.5,605C 5518.7,560.347 5588.03,528.347 5663.5,509C 5750.38,485.617 5838.71,476.95 5928.5,483C 6057.74,491.248 6184.07,514.915 6307.5,554C 6308.94,555.126 6309.61,556.626 6309.5,558.5C 6302.38,637.828 6295.38,717.161 6288.5,796.5C 6198.81,766.744 6107.48,743.244 6014.5,726C 5921.75,708.696 5828.41,704.362 5734.5,713C 5613.46,724.637 5507.13,769.637 5415.5,848C 5365.3,894.7 5315.3,941.533 5265.5,988.5 Z"/></g>
<g><path style="opacity:0.686" fill="#9b9598" d="M 5042.5,808.5 C 5044.75,809.08 5046.42,810.413 5047.5,812.5C 5045.25,811.92 5043.58,810.587 5042.5,808.5 Z"/></g>
<g><path style="opacity:0.596" fill="#9d969a" d="M 5047.5,812.5 C 5049.75,813.08 5051.42,814.413 5052.5,816.5C 5050.25,815.92 5048.58,814.587 5047.5,812.5 Z"/></g>
<g><path style="opacity:0.545" fill="#a1989d" d="M 5052.5,816.5 C 5054.75,817.08 5056.42,818.413 5057.5,820.5C 5055.25,819.92 5053.58,818.587 5052.5,816.5 Z"/></g>
<g><path style="opacity:1" fill="#7e7a7d" d="M 4951.5,1006.5 C 4951.5,1006.83 4951.5,1007.17 4951.5,1007.5C 4906.24,971.248 4861.58,934.248 4817.5,896.5C 4817.52,894.972 4818.18,894.472 4819.5,895C 4819.17,895.333 4818.83,895.667 4818.5,896C 4862.71,933.045 4907.04,969.878 4951.5,1006.5 Z"/></g>
<g><path style="opacity:1" fill="#fee900" d="M 2028.5,996.5 C 2031.32,996.081 2033.49,997.081 2035,999.5C 2130.96,1116.63 2227.46,1233.3 2324.5,1349.5C 2416.17,1274.33 2507.83,1199.17 2599.5,1124C 2600.5,1123.33 2601.5,1123.33 2602.5,1124C 2774.2,1288.7 2946.2,1453.03 3118.5,1617C 3120.35,1618.49 3121.18,1620.33 3121,1622.5C 3059.83,1684.33 2998.67,1746.17 2937.5,1808C 2936.17,1808.67 2934.83,1808.67 2933.5,1808C 2792.33,1673.5 2651.17,1539 2510,1404.5C 2483.14,1431.36 2456.31,1458.19 2429.5,1485C 2503,1567.17 2576.5,1649.33 2650,1731.5C 2650.72,1733.11 2650.55,1734.61 2649.5,1736C 2574.61,1782.4 2499.61,1828.57 2424.5,1874.5C 2349.83,1792 2275.67,1709 2202,1625.5C 2200.17,1623.67 2198.33,1621.83 2196.5,1620C 2195.5,1619.33 2194.5,1619.33 2193.5,1620C 2125.6,1674.28 2056.27,1726.61 1985.5,1777C 1881.85,1848.83 1777.85,1920.16 1673.5,1991C 1561.82,2067 1453.82,2148 1349.5,2234C 1348.17,2234.67 1346.83,2234.67 1345.5,2234C 1320.67,2193.17 1295.83,2152.33 1271,2111.5C 1270.18,2109.3 1270.68,2107.47 1272.5,2106C 1547.5,1903.67 1822.5,1701.33 2097.5,1499C 2061.6,1450.11 2026.1,1400.94 1991,1351.5C 1982.62,1342.62 1974.45,1333.62 1966.5,1324.5C 1872.74,1394.76 1779.41,1465.59 1686.5,1537C 1679.52,1542.1 1671.69,1544.6 1663,1544.5C 1649.9,1542.4 1636.73,1540.9 1623.5,1540C 1594.67,1506.5 1565.83,1473 1537,1439.5C 1535.6,1437.61 1534.43,1435.61 1533.5,1433.5C 1550.93,1414.57 1568.93,1396.07 1587.5,1378C 1734.69,1250.97 1881.69,1123.8 2028.5,996.5 Z"/></g>
<g><path style="opacity:1" fill="#fee900" d="M 4951.5,1006.5 C 4991.8,1039.66 5032.14,1072.83 5072.5,1106C 5084.61,1115.71 5096.28,1125.88 5107.5,1136.5C 5106.45,1136.35 5105.45,1136.52 5104.5,1137C 4880.52,1347.02 4651.18,1550.35 4416.5,1747C 4240.69,1893.04 4060.35,2033.04 3875.5,2167C 3755.09,2253.38 3632.09,2336.05 3506.5,2415C 3504.94,2415.76 3503.94,2416.93 3503.5,2418.5C 3502.45,2418.35 3501.45,2418.52 3500.5,2419C 3437.6,2456.27 3374.94,2493.77 3312.5,2531.5C 3310.97,2531.43 3309.97,2532.09 3309.5,2533.5C 3070.98,2673.59 2821.64,2791.42 2561.5,2887C 2367.36,2957.71 2168.36,3010.04 1964.5,3044C 1736.12,3081.62 1506.79,3088.95 1276.5,3066C 1192.95,3057.46 1110.29,3044.3 1028.5,3026.5C 985.737,3015.56 942.737,3005.06 899.5,2995C 857.569,2982.86 815.569,2971.02 773.5,2959.5C 619.11,2907.3 470.443,2841.8 327.5,2763C 326.663,2761.99 326.33,2760.82 326.5,2759.5C 471.87,2798.59 618.87,2830.26 767.5,2854.5C 768.473,2854.99 769.473,2855.49 770.5,2856C 813.238,2861.34 855.904,2866.84 898.5,2872.5C 1463.08,2946.18 2010.41,2879.34 2540.5,2672C 2750.3,2588.77 2952.3,2490.1 3146.5,2376C 3195.89,2346.98 3244.89,2317.48 3293.5,2287.5C 3295.59,2286.96 3297.59,2286.12 3299.5,2285C 3364.02,2241.58 3428.69,2198.41 3493.5,2155.5C 3493.43,2155.94 3493.6,2156.27 3494,2156.5C 3585.8,2093.35 3676.63,2028.85 3766.5,1963C 3927.79,1842.39 4086.79,1718.72 4243.5,1592C 4480.27,1398.06 4716.27,1203.22 4951.5,1007.5C 4951.5,1007.17 4951.5,1006.83 4951.5,1006.5 Z"/></g>
<g><path style="opacity:0.008" fill="#f5c917" d="M 1741.5,1069.5 C 1744,1069.51 1744.17,1070.18 1742,1071.5C 1741.54,1070.91 1741.37,1070.24 1741.5,1069.5 Z"/></g>
<g><path style="opacity:0.004" fill="#f6cf1e" d="M 2204.5,1138.5 C 2205.08,1137.23 2205.74,1137.23 2206.5,1138.5C 2206.03,1139.46 2205.36,1139.46 2204.5,1138.5 Z"/></g>
<g><path style="opacity:0.004" fill="#f6cf1d" d="M 1510.5,1335.5 C 1511.29,1335.78 1511.96,1336.28 1512.5,1337C 1511.18,1337.53 1510.52,1337.03 1510.5,1335.5 Z"/></g>
<g><path style="opacity:0.004" fill="#f7d01a" d="M 2936.5,1363.5 C 2937.08,1362.23 2937.74,1362.23 2938.5,1363.5C 2938.03,1364.46 2937.36,1364.46 2936.5,1363.5 Z"/></g>
<g><path style="opacity:0.008" fill="#f5cc1d" d="M 2487.5,1478.5 C 2488.08,1477.23 2488.74,1477.23 2489.5,1478.5C 2489.03,1479.46 2488.36,1479.46 2487.5,1478.5 Z"/></g>
<g><path style="opacity:0.004" fill="#f6ce1a" d="M 1277.5,1933.5 C 1279.98,1933.75 1279.98,1934.41 1277.5,1935.5C 1276.54,1935.03 1276.54,1934.36 1277.5,1933.5 Z"/></g>
<g><path style="opacity:1" fill="#fefefe" d="M 3503.5,2418.5 C 3509.88,2600.5 3516.22,2782.5 3522.5,2964.5C 3463.15,2961.39 3403.82,2958.05 3344.5,2954.5C 3334.6,2817.51 3324.77,2680.51 3315,2543.5C 3315.1,2539.04 3314.27,2535.04 3312.5,2531.5C 3374.94,2493.77 3437.6,2456.27 3500.5,2419C 3501.45,2418.52 3502.45,2418.35 3503.5,2418.5 Z"/></g>
<g><path style="opacity:0.702" fill="#e9dbe3" d="M 3312.5,2531.5 C 3312.03,2532.91 3311.03,2533.57 3309.5,2533.5C 3309.97,2532.09 3310.97,2531.43 3312.5,2531.5 Z"/></g>
<g><path style="opacity:1" fill="#fefefe" d="M 773.5,2959.5 C 815.569,2971.02 857.569,2982.86 899.5,2995C 942.737,3005.06 985.737,3015.56 1028.5,3026.5C 986.582,3017.94 944.915,3008.27 903.5,2997.5C 904.302,3031.18 905.135,3064.85 906,3098.5C 864.985,3106.53 823.819,3113.86 782.5,3120.5C 779.389,3066.84 776.389,3013.17 773.5,2959.5 Z"/></g>
</svg>
